<?xml version="1.0" encoding="UTF-8"?>
<svg width="1080px" height="1080px" viewBox="0 0 1080 1080" version="1.1" xmlns="http://www.w3.org/2000/svg" xmlns:xlink="http://www.w3.org/1999/xlink">
    <!-- Generator: Sketch 52.6 (67491) - http://www.bohemiancoding.com/sketch -->
    <title>home</title>
    <desc>Created with Sketch.</desc>
    <defs>
        <linearGradient x1="50%" y1="3.46944695e-15%" x2="61.5228052%" y2="100%" id="linearGradient-1">
            <stop stop-color="#3F5D73" offset="0%"></stop>
            <stop stop-color="#0F223D" offset="100%"></stop>
        </linearGradient>
    </defs>
    <g id="home" stroke="none" stroke-width="1" fill="none" fill-rule="evenodd">
        <path d="M540,1017 C803.439826,1017 1017,803.439826 1017,540 C1017,276.560174 803.439826,63 540,63 C276.560174,63 63,276.560174 63,540 C63,803.439826 276.560174,1017 540,1017 Z M540,1075 C244.527659,1075 5,835.472341 5,540 C5,244.527659 244.527659,5 540,5 C835.472341,5 1075,244.527659 1075,540 C1075,835.472341 835.472341,1075 540,1075 Z M569.8125,595.088133 L509.1875,595.088133 C474.669703,595.088133 446.6875,623.02037 446.6875,657.476531 L446.6875,789.116049 C446.6875,809.789746 429.898178,826.549088 409.1875,826.549088 L239.5,826.549088 C218.789322,826.549088 202,809.789746 202,789.116049 L202,482.33906 C202,458.847196 212.204044,436.509403 229.972051,421.105116 L498.516962,188.285364 C522.024743,167.904879 556.975257,167.904879 580.483038,188.285364 L849.027949,421.105116 C866.795956,436.509403 877,458.847196 877,482.33906 L877,789.116049 C877,809.789746 860.210678,826.549088 839.5,826.549088 L669.8125,826.549088 C649.101822,826.549088 632.3125,809.789746 632.3125,789.116049 L632.3125,657.476531 C632.3125,623.02037 604.330297,595.088133 569.8125,595.088133 Z" id="Combined-Shape" fill="url(#linearGradient-1)" fill-rule="nonzero"></path>
    </g>
</svg>