<?xml version="1.0" encoding="UTF-8"?>
<svg width="1080px" height="1080px" viewBox="0 0 1080 1080" version="1.1" xmlns="http://www.w3.org/2000/svg" xmlns:xlink="http://www.w3.org/1999/xlink">
    <!-- Generator: Sketch 52.6 (67491) - http://www.bohemiancoding.com/sketch -->
    <title>tjk_logo</title>
    <desc>Created with Sketch.</desc>
    <defs>
        <linearGradient x1="50%" y1="3.46944695e-15%" x2="61.5228052%" y2="100%" id="linearGradient-1">
            <stop stop-color="#3F5D73" offset="0%"></stop>
            <stop stop-color="#0F223D" offset="100%"></stop>
        </linearGradient>
    </defs>
    <g id="tjk_logo" stroke="none" stroke-width="1" fill="none" fill-rule="evenodd">
        <path d="M540,1017 C803.439826,1017 1017,803.439826 1017,540 C1017,276.560174 803.439826,63 540,63 C276.560174,63 63,276.560174 63,540 C63,803.439826 276.560174,1017 540,1017 Z M540,1075 C244.527659,1075 5,835.472341 5,540 C5,244.527659 244.527659,5 540,5 C835.472341,5 1075,244.527659 1075,540 C1075,835.472341 835.472341,1075 540,1075 Z M481.735965,185.276655 L444.291756,325.020343 L495.557483,338.756953 C505.933614,341.537229 512.10341,352.157302 509.338108,362.477551 L475.456247,488.926378 C472.690945,499.246627 462.037708,505.358982 451.661576,502.578706 L400.39585,488.842096 C391.579582,521.744857 390.71685,545.813627 397.807628,561.049128 C401.700258,569.412971 414.216481,578.580385 435.356298,588.551367 C443.856543,592.560669 448.276246,602.039083 445.856463,611.069836 L411.501403,739.284676 C408.7361,749.604926 398.082862,755.717282 387.70673,752.937005 C387.636345,752.918146 387.566067,752.898893 387.495897,752.879248 C375.778227,749.598691 368.166876,747.276954 364.661846,745.914037 C338.99373,735.933093 315.811897,721.444779 295.115921,702.448861 C268.213028,677.755888 249.051534,648.914325 237.630863,615.923304 C223.280771,573.849684 223.995904,523.367042 239.776283,464.473864 L325.783811,143.489401 C328.549113,133.169153 339.20235,127.056797 349.578481,129.837073 L467.95534,161.556057 C478.331471,164.336333 484.501267,174.956406 481.735965,185.276655 Z M565.535588,349.392033 L683.57505,381.020612 C693.921608,383.792964 700.063706,394.420509 697.293811,404.757898 L608.583226,735.830307 C588.991961,808.945902 560.736939,865.533659 514.510452,899.453935 C455.74242,942.480883 409.169365,941.082853 341.046745,922.829452 C293.359946,910.051812 278.608646,896.980416 264.499657,887.795351 C247.689418,876.851752 239.825574,856.349088 245.012958,836.989507 C245.2357,836.158162 245.446022,835.373228 245.64391,834.6347 L268.284951,750.137187 C271.040645,739.852795 281.619118,733.751561 291.912631,736.509699 C294.599754,737.229712 297.099552,738.521738 299.240663,740.297209 C300.514912,741.353962 301.848457,742.427873 303.241243,743.519009 C313.083135,751.229334 327.387451,758.678616 349.94152,764.721961 C411.479619,781.211044 434.820038,762.292708 459.086491,671.729072 L541.78615,363.089746 C544.556045,352.752356 555.18903,346.619682 565.535588,349.392033 Z M673.652027,178.003072 C694.850848,183.683278 711.114629,196.343997 722.443858,215.985606 C733.773088,235.627216 736.605337,256.01809 730.94069,277.15884 C724.888053,299.747587 712.600011,316.319782 694.076194,326.875921 C675.552376,337.43206 654.854573,339.645774 631.982161,333.51713 C609.10975,327.388485 592.291783,315.122451 581.527756,296.718658 C570.763729,278.314865 568.40807,257.818902 574.460706,235.230155 C580.125353,214.089404 592.77359,197.846514 612.405795,186.500996 C632.038,175.155478 652.453207,172.322865 673.652027,178.003072 Z M923.250856,475.895737 L833.566824,576.111678 C829.74481,580.382525 828.014611,586.123229 828.840338,591.793896 L866.092564,847.622841 C867.636161,858.223468 860.272815,868.051633 849.64607,869.574662 C847.037799,869.94848 844.37973,869.789409 841.833367,869.107113 L710.937515,834.033675 C703.012901,831.910281 697.269083,825.057526 696.580555,816.90487 L673.361017,541.96941 C672.918898,536.734412 674.624936,531.547792 678.088836,527.596109 L774.114213,418.048537 C778.989718,412.486468 786.616646,410.178356 793.7789,412.097476 L913.75369,444.244624 C924.128209,447.024468 930.291885,457.662154 927.520645,468.00456 C926.736065,470.932653 925.273656,473.635393 923.250856,475.895737 Z" id="Combined-Shape" fill="url(#linearGradient-1)" fill-rule="nonzero"></path>
    </g>
</svg>